<svg width="350" height="40" viewBox="0 0 350 40" fill="none" xmlns="http://www.w3.org/2000/svg">
<path d="M21.7962 39L20.0682 31.848H10.3722L8.69223 39H0.532227L10.5642 5.73602H20.1162L30.1482 39H21.7962ZM11.7162 26.136H18.7242L15.2202 11.448L11.7162 26.136Z" fill="#141414"/>
<path d="M46.2687 12.792C47.1967 12.792 48.0447 12.904 48.8127 13.128L47.6127 20.472C46.6527 20.248 45.8847 20.136 45.3087 20.136C43.8047 20.136 42.6527 20.664 41.8527 21.72C41.0847 22.744 40.4767 24.296 40.0287 26.376V39H32.4447V13.512H39.0687L39.6927 18.456C40.2687 16.696 41.1327 15.32 42.2847 14.328C43.4687 13.304 44.7967 12.792 46.2687 12.792Z" fill="#141414"/>
<path d="M59.2944 13.512V39H51.7104V13.512H59.2944ZM55.4544 0.0720215C56.7664 0.0720215 57.8384 0.488022 58.6704 1.32002C59.5344 2.12002 59.9664 3.14402 59.9664 4.39202C59.9664 5.64002 59.5344 6.68002 58.6704 7.51202C57.8384 8.31202 56.7664 8.71202 55.4544 8.71202C54.1424 8.71202 53.0704 8.31202 52.2384 7.51202C51.4064 6.68002 50.9904 5.64002 50.9904 4.39202C50.9904 3.14402 51.4064 2.12002 52.2384 1.32002C53.0704 0.488022 54.1424 0.0720215 55.4544 0.0720215Z" fill="#141414"/>
<path d="M87.4812 25.752C87.4812 26.808 87.4332 27.72 87.3372 28.488H71.5452C71.8012 30.632 72.4092 32.136 73.3692 33C74.3292 33.864 75.6572 34.296 77.3532 34.296C78.3772 34.296 79.3692 34.12 80.3292 33.768C81.2892 33.384 82.3292 32.808 83.4492 32.04L86.5692 36.264C83.5932 38.632 80.2812 39.816 76.6332 39.816C72.5052 39.816 69.3372 38.6 67.1292 36.168C64.9212 33.736 63.8172 30.472 63.8172 26.376C63.8172 23.784 64.2812 21.464 65.2092 19.416C66.1372 17.336 67.4972 15.704 69.2892 14.52C71.0812 13.304 73.2252 12.696 75.7212 12.696C79.4012 12.696 82.2812 13.848 84.3612 16.152C86.4412 18.456 87.4812 21.656 87.4812 25.752ZM80.0412 23.592C79.9772 19.688 78.6012 17.736 75.9132 17.736C74.6012 17.736 73.5772 18.216 72.8412 19.176C72.1372 20.136 71.7052 21.72 71.5452 23.928H80.0412V23.592Z" fill="#141414"/>
<path d="M98.5096 39.816C96.3016 39.816 94.5736 39.192 93.3256 37.944C92.1096 36.664 91.5016 34.856 91.5016 32.52V3.38402L99.0856 2.56802V32.232C99.0856 33.288 99.5176 33.816 100.382 33.816C100.83 33.816 101.246 33.736 101.63 33.576L103.118 38.952C101.742 39.528 100.206 39.816 98.5096 39.816Z" fill="#141414"/>
<path d="M112.76 39.816C110.552 39.816 108.824 39.192 107.576 37.944C106.36 36.664 105.752 34.856 105.752 32.52V3.38402L113.336 2.56802V32.232C113.336 33.288 113.768 33.816 114.632 33.816C115.08 33.816 115.496 33.736 115.88 33.576L117.368 38.952C115.992 39.528 114.456 39.816 112.76 39.816Z" fill="#141414"/>
<path d="M142.231 25.752C142.231 26.808 142.183 27.72 142.087 28.488H126.295C126.551 30.632 127.159 32.136 128.119 33C129.079 33.864 130.407 34.296 132.103 34.296C133.127 34.296 134.119 34.12 135.079 33.768C136.039 33.384 137.079 32.808 138.199 32.04L141.319 36.264C138.343 38.632 135.031 39.816 131.383 39.816C127.255 39.816 124.087 38.6 121.879 36.168C119.671 33.736 118.567 30.472 118.567 26.376C118.567 23.784 119.031 21.464 119.959 19.416C120.887 17.336 122.247 15.704 124.039 14.52C125.831 13.304 127.975 12.696 130.471 12.696C134.151 12.696 137.031 13.848 139.111 16.152C141.191 18.456 142.231 21.656 142.231 25.752ZM134.791 23.592C134.727 19.688 133.351 17.736 130.663 17.736C129.351 17.736 128.327 18.216 127.591 19.176C126.887 20.136 126.455 21.72 126.295 23.928H134.791V23.592Z" fill="#141414"/>
<path d="M172.426 4.92002C176.714 4.92002 180.41 6.28002 183.514 9.00002L179.53 13.176C178.346 12.28 177.242 11.64 176.218 11.256C175.226 10.84 174.074 10.632 172.762 10.632C170.298 10.632 168.33 11.608 166.858 13.56C165.386 15.48 164.65 18.408 164.65 22.344C164.65 26.6 165.21 29.624 166.33 31.416C167.45 33.176 169.194 34.056 171.562 34.056C173.226 34.056 174.73 33.688 176.074 32.952V25.416H171.754L170.986 19.848H183.706V36.312C181.978 37.432 180.074 38.296 177.994 38.904C175.914 39.512 173.834 39.816 171.754 39.816C166.698 39.816 162.89 38.344 160.33 35.4C157.77 32.424 156.49 28.072 156.49 22.344C156.49 18.696 157.178 15.56 158.554 12.936C159.962 10.312 161.866 8.32802 164.266 6.98402C166.698 5.60802 169.418 4.92002 172.426 4.92002Z" fill="#141414"/>
<path d="M199.86 12.696C203.764 12.696 206.82 13.896 209.028 16.296C211.236 18.664 212.34 21.992 212.34 26.28C212.34 29 211.828 31.384 210.804 33.432C209.812 35.448 208.372 37.016 206.484 38.136C204.628 39.256 202.42 39.816 199.86 39.816C195.988 39.816 192.932 38.632 190.692 36.264C188.484 33.864 187.38 30.52 187.38 26.232C187.38 23.512 187.876 21.144 188.868 19.128C189.892 17.08 191.332 15.496 193.188 14.376C195.076 13.256 197.3 12.696 199.86 12.696ZM199.86 18.264C198.324 18.264 197.172 18.92 196.404 20.232C195.636 21.512 195.252 23.512 195.252 26.232C195.252 29.016 195.62 31.048 196.356 32.328C197.124 33.608 198.292 34.248 199.86 34.248C201.396 34.248 202.548 33.608 203.316 32.328C204.084 31.016 204.468 29 204.468 26.28C204.468 23.496 204.084 21.464 203.316 20.184C202.58 18.904 201.428 18.264 199.86 18.264Z" fill="#141414"/>
<path d="M231.779 12.696C233.987 12.696 235.715 13.368 236.963 14.712C238.211 16.056 238.835 17.944 238.835 20.376V39H231.251V21.672C231.251 20.392 231.043 19.512 230.627 19.032C230.243 18.52 229.651 18.264 228.851 18.264C227.315 18.264 225.843 19.368 224.435 21.576V39H216.851V13.512H223.475L224.003 16.536C225.091 15.256 226.259 14.296 227.507 13.656C228.787 13.016 230.211 12.696 231.779 12.696Z" fill="#141414"/>
<path d="M262.506 13.512V18.84L250.986 33.24H262.746L262.074 39H242.202V33.624L253.77 19.224H243.21V13.512H262.506Z" fill="#141414"/>
<path d="M286.138 31.608C286.138 32.568 286.266 33.272 286.522 33.72C286.81 34.168 287.258 34.504 287.866 34.728L286.282 39.672C284.714 39.544 283.434 39.208 282.442 38.664C281.45 38.088 280.682 37.192 280.138 35.976C278.474 38.536 275.914 39.816 272.458 39.816C269.93 39.816 267.914 39.08 266.41 37.608C264.906 36.136 264.154 34.216 264.154 31.848C264.154 29.064 265.178 26.936 267.226 25.464C269.274 23.992 272.234 23.256 276.106 23.256H278.698V22.152C278.698 20.648 278.378 19.624 277.738 19.08C277.098 18.504 275.978 18.216 274.378 18.216C273.546 18.216 272.538 18.344 271.354 18.6C270.17 18.824 268.954 19.144 267.706 19.56L265.978 14.568C267.578 13.96 269.21 13.496 270.874 13.176C272.57 12.856 274.138 12.696 275.578 12.696C279.226 12.696 281.898 13.448 283.594 14.952C285.29 16.456 286.138 18.712 286.138 21.72V31.608ZM274.666 34.392C276.394 34.392 277.738 33.576 278.698 31.944V27.432H276.826C275.098 27.432 273.802 27.736 272.938 28.344C272.106 28.952 271.69 29.896 271.69 31.176C271.69 32.2 271.946 33 272.458 33.576C273.002 34.12 273.738 34.392 274.666 34.392Z" fill="#141414"/>
<path d="M298.478 39.816C296.27 39.816 294.542 39.192 293.294 37.944C292.078 36.664 291.47 34.856 291.47 32.52V3.38402L299.054 2.56802V32.232C299.054 33.288 299.486 33.816 300.35 33.816C300.798 33.816 301.214 33.736 301.598 33.576L303.086 38.952C301.71 39.528 300.174 39.816 298.478 39.816Z" fill="#141414"/>
<path d="M327.95 25.752C327.95 26.808 327.902 27.72 327.806 28.488H312.014C312.27 30.632 312.878 32.136 313.838 33C314.798 33.864 316.126 34.296 317.822 34.296C318.846 34.296 319.838 34.12 320.798 33.768C321.758 33.384 322.798 32.808 323.918 32.04L327.038 36.264C324.062 38.632 320.75 39.816 317.102 39.816C312.974 39.816 309.806 38.6 307.598 36.168C305.39 33.736 304.286 30.472 304.286 26.376C304.286 23.784 304.75 21.464 305.678 19.416C306.606 17.336 307.966 15.704 309.758 14.52C311.55 13.304 313.694 12.696 316.19 12.696C319.87 12.696 322.75 13.848 324.83 16.152C326.91 18.456 327.95 21.656 327.95 25.752ZM320.51 23.592C320.446 19.688 319.07 17.736 316.382 17.736C315.07 17.736 314.046 18.216 313.31 19.176C312.606 20.136 312.174 21.72 312.014 23.928H320.51V23.592Z" fill="#141414"/>
<path d="M349.74 13.512V18.84L338.22 33.24H349.98L349.308 39H329.436V33.624L341.004 19.224H330.444V13.512H349.74Z" fill="#141414"/>
</svg>
